<!-- icon666.com - MILLIONS OF FREE VECTOR ICONS --><svg viewBox="0 0 32 32" xmlns="http://www.w3.org/2000/svg"><g id="AC"><rect fill="#e6ecff" height="14" rx="3" width="25" x="3.5" y="4.5"></rect><path d="m28.5 7.5v7h-25v-7a2.8456 2.8456 0 0 1 .4-1.49 1.4 1.4 0 0 1 .1-.16 2.9782 2.9782 0 0 1 2.5-1.35h19a3.0088 3.0088 0 0 1 3 3z" fill="#4294ff"></path><path d="m12.71 14.5h-9.21v-7a2.8456 2.8456 0 0 1 .4-1.49 33.73 33.73 0 0 0 8.81 8.49z" fill="#235fe5"></path><path d="m6.5 18.5a3.0033 3.0033 0 0 1 -3-3v-1h5v4z" fill="#c5d1ed"></path><path d="m8.5 14.5h15v2h-15z" fill="#376cfb"></path><path d="m8.5 16.5h15v2h-15z" fill="#4294ff"></path><path d="m16.18 16.5h-7.68v-2h4.21c.25.17.51.34.78.5.85.52 1.74 1.03 2.69 1.5z" fill="#173ecc"></path><path d="m21.27 18.5h-12.77v-2h7.68c.36.17.71.34 1.08.5a32.6669 32.6669 0 0 0 4.01 1.5z" fill="#235fe5"></path><g fill="#232328"><path d="m25.5 4h-19a3.5042 3.5042 0 0 0 -3.5 3.5v8a3.5042 3.5042 0 0 0 3.5 3.5h19a3.5042 3.5042 0 0 0 3.5-3.5v-8a3.5042 3.5042 0 0 0 -3.5-3.5zm-19 1h19a2.5026 2.5026 0 0 1 2.5 2.5v6.5h-24v-6.5a2.503 2.503 0 0 1 2.5-2.5zm16.5 11h-14v-1h14zm-19-.5v-.5h4v3h-1.5a2.503 2.503 0 0 1 -2.5-2.5zm5 2.5v-1h14v1zm16.5 0h-1.5v-3h4v.5a2.5026 2.5026 0 0 1 -2.5 2.5z"></path><path d="m25.5 13h1a.5.5 0 0 0 0-1h-1a.5.5 0 0 0 0 1z"></path><path d="m15.42 20.5a.5.5 0 0 0 -1 0 1.2659 1.2659 0 0 1 -.3257.873 2.3259 2.3259 0 0 0 0 2.917 1.3389 1.3389 0 0 1 0 1.7505 2.2456 2.2456 0 0 0 -.5143 1.4595.5.5 0 0 0 1 0 1.2716 1.2716 0 0 1 .3257-.8755 2.3279 2.3279 0 0 0 0-2.9184 1.3357 1.3357 0 0 1 0-1.7481 2.2432 2.2432 0 0 0 .5143-1.458z"></path><path d="m18.42 20.5a.5.5 0 0 0 -1 0 1.27 1.27 0 0 1 -.3252.873 2.3258 2.3258 0 0 0 -.0009 2.917 1.3376 1.3376 0 0 1 0 1.7505 2.2478 2.2478 0 0 0 -.5139 1.4595.5.5 0 0 0 1 0 1.2719 1.2719 0 0 1 .3262-.8755 2.33 2.33 0 0 0 0-2.9184 1.3357 1.3357 0 0 1 -.001-1.7481 2.24 2.24 0 0 0 .5148-1.458z"></path><path d="m21.42 20.5a.5.5 0 0 0 -1 0 1.27 1.27 0 0 1 -.3252.873 2.3258 2.3258 0 0 0 -.0009 2.917 1.3376 1.3376 0 0 1 0 1.7505 2.2478 2.2478 0 0 0 -.5139 1.4595.5.5 0 0 0 1 0 1.2719 1.2719 0 0 1 .3262-.8755 2.33 2.33 0 0 0 0-2.9184 1.3357 1.3357 0 0 1 -.001-1.7481 2.24 2.24 0 0 0 .5148-1.458z"></path><path d="m12.42 20.5a.5.5 0 0 0 -1 0 1.2659 1.2659 0 0 1 -.3257.873 2.3259 2.3259 0 0 0 0 2.917 1.3389 1.3389 0 0 1 0 1.7505 2.2456 2.2456 0 0 0 -.5143 1.4595.5.5 0 0 0 1 0 1.2716 1.2716 0 0 1 .3257-.8755 2.3279 2.3279 0 0 0 0-2.9184 1.3357 1.3357 0 0 1 0-1.7481 2.2432 2.2432 0 0 0 .5143-1.458z"></path></g></g></svg>