<!-- icon666.com - MILLIONS OF FREE VECTOR ICONS --><svg id="line" viewBox="0 0 64 64" xmlns="http://www.w3.org/2000/svg"><g fill="#c4a2fc"><path d="m37.024 37.9a10.867 10.867 0 0 0 0 9.21l7.976-4.61z"/><path d="m29 25.5h-13a3 3 0 0 0 -3 3v28a3 3 0 0 0 3 3h13zm-12 8h8a1 1 0 0 1 0 2h-8a1 1 0 0 1 0-2zm8 18h-8a1 1 0 0 1 0-2h8a1 1 0 0 1 0 2zm0-8h-8a1 1 0 0 1 0-2h8a1 1 0 0 1 0 2z"/><path d="m38.024 36.163 7.976 4.605v-9.217a11 11 0 0 0 -7.976 4.612z"/><path d="m60 25.5h-29v34h29a3 3 0 0 0 3-3v-28a3 3 0 0 0 -3-3zm-13 30a13 13 0 1 1 13-13 13.015 13.015 0 0 1 -13 13z"/><path d="m46 53.449v-9.217l-7.976 4.605a11 11 0 0 0 7.976 4.612z"/><path d="m48 31.551v9.217l7.976-4.605a11 11 0 0 0 -7.976-4.612z"/><path d="m48 53.449a11 11 0 0 0 7.976-4.612l-7.976-4.605z"/><path d="m56.976 47.105a10.867 10.867 0 0 0 0-9.21l-7.976 4.605z"/></g><path d="m48 6.5h-5.184a3 3 0 0 0 -2.816-2h-28a3 3 0 0 0 -2.816 2h-5.184a3 3 0 0 0 -3 3v19a3 3 0 0 0 3 3h44a3 3 0 0 0 3-3v-19a3 3 0 0 0 -3-3zm-36 0h28a1 1 0 0 1 1 1v4a3 3 0 0 1 -3 3h-24a3 3 0 0 1 -3-3v-4a1 1 0 0 1 1-1zm-8 2h5v3a5.006 5.006 0 0 0 5 5h24a5.006 5.006 0 0 0 5-5v-3h5a1 1 0 0 1 1 1v11h-46v-11a1 1 0 0 1 1-1zm23 17v-3h6v3zm-8 0v-3h6v3zm-6.5 0a1.5 1.5 0 0 1 -1.5-1.5v-1.5h6v3zm22.5-3h6v1.5a1.5 1.5 0 0 1 -1.5 1.5h-4.5zm13 7h-44a1 1 0 0 1 -1-1v-6h6v1.5a3.5 3.5 0 0 0 3.5 3.5h27a3.5 3.5 0 0 0 3.5-3.5v-1.5h6v6a1 1 0 0 1 -1 1z" fill="#151a6a"/></svg>
